<svg width="48" height="49" viewBox="0 0 48 49" fill="none" xmlns="http://www.w3.org/2000/svg">
<g clip-path="url(#clip0_621_94)">
<path d="M15.004 0.58606H20.16V2.74206H17.16V4.89806H20.16V7.05406H15.004V0.58606ZM21.19 0.58606H26.348V2.46206H23.348V2.83606H26.348V7.14806H21.19V5.18006H24.19V4.80406H21.19V0.58606ZM27.38 0.58606H32.534V2.46206H29.534V2.83606H32.534V7.14806H27.38V5.18006H30.38V4.80406H27.38V0.58606Z" fill="black"/>
<path fill-rule="evenodd" clip-rule="evenodd" d="M23.982 48.5861L10.094 44.7301L6 10.0201H42L37.908 44.7261L23.982 48.5861ZM14.094 25.7321L14.476 29.9881H29.23L28.736 35.5081L23.988 36.7921H23.984L19.244 35.5121L18.94 32.1181H14.666L15.262 38.8021L23.982 41.2221L32.716 38.8021L33.78 26.8741L33.884 25.7321L34.652 17.1141H13.328L13.716 21.3721H29.988L29.6 25.7321H14.094Z" fill="black"/>
</g>
<defs>
<clipPath id="clip0_621_94">
<rect width="48" height="48" fill="white" transform="translate(0 0.58606)"/>
</clipPath>
</defs>
</svg>
