<svg width="36" height="37" viewBox="0 0 36 37" fill="none" xmlns="http://www.w3.org/2000/svg">
<path fill-rule="evenodd" clip-rule="evenodd" d="M17.989 3.20703C9.74839 3.20703 3.06946 9.90453 3.06946 18.168C3.06946 24.777 7.34308 30.3855 13.2726 32.3655C14.019 32.5005 14.2883 32.04 14.2883 31.644C14.2883 31.2885 14.2763 30.3465 14.2718 29.1C10.1209 30.003 9.24429 27.093 9.24429 27.093C8.56817 25.365 7.58839 24.9045 7.58839 24.9045C6.23466 23.976 7.69161 23.997 7.69161 23.997C9.19044 24.102 9.97576 25.539 9.97576 25.539C11.3071 27.825 13.47 27.165 14.3167 26.7825C14.4528 25.815 14.8417 25.155 15.2665 24.7815C11.9548 24.405 8.47244 23.121 8.47244 17.3865C8.47244 15.756 9.05432 14.418 10.0042 13.374C9.8531 12.9945 9.33703 11.472 10.1523 9.41403C10.1523 9.41403 11.4043 9.01053 14.2539 10.9455C15.4709 10.6135 16.7263 10.4441 17.9875 10.4415C19.2487 10.4436 20.5042 10.6131 21.7211 10.9455C24.5722 9.00903 25.8227 9.41403 25.8227 9.41403C26.6379 11.472 26.1264 12.9945 25.9708 13.374C26.9281 14.418 27.5025 15.7545 27.5025 17.3865C27.5025 23.136 24.0172 24.399 20.6935 24.7695C21.2245 25.2315 21.7032 26.1435 21.7032 27.5385C21.7032 29.5395 21.6852 31.1535 21.6852 31.644C21.6852 32.0445 21.9515 32.5095 22.7128 32.3625C28.6394 30.3795 32.9085 24.7755 32.9085 18.168C32.9085 9.90453 26.2296 3.20703 17.989 3.20703Z" fill="black"/>
</svg>
