<svg width="48" height="49" viewBox="0 0 48 49" fill="none" xmlns="http://www.w3.org/2000/svg">
<g clip-path="url(#clip0_621_87)">
<mask id="mask0_621_87" style="mask-type:luminance" maskUnits="userSpaceOnUse" x="0" y="0" width="48" height="49">
<path d="M0 0.58606H48V48.5861H0V0.58606Z" fill="white"/>
</mask>
<g mask="url(#mask0_621_87)">
<path d="M10.16 0.58606H12.324V2.72406H14.304V0.58606H16.468V7.05806H14.304V4.89206H12.324V7.05806H10.162L10.16 0.58606ZM19.312 2.73206H17.408V0.58606H23.382V2.73206H21.476V7.05806H19.312V2.73206ZM24.33 0.58606H26.586L27.974 2.86006L29.36 0.58606H31.616V7.05806H29.462V3.85006L27.974 6.15206H27.936L26.446 3.85206V7.05806H24.33V0.58606ZM32.692 0.58606H34.858V4.92006H37.898V7.06006H32.692V0.58606Z" fill="black"/>
<path fill-rule="evenodd" clip-rule="evenodd" d="M10.092 44.7301L6 10.0201H42L37.906 44.7261L23.98 48.5861L10.092 44.7301ZM18.366 25.7301L17.978 21.3701H34.268L34.648 17.1141H13.328L14.476 29.9881H29.23L28.736 35.5081L23.988 36.7921H23.984L19.244 35.5121L18.94 32.1181H14.664L15.26 38.8021L23.98 41.2221L32.714 38.8021L33.778 26.8741L33.882 25.7321H18.366V25.7301Z" fill="black"/>
</g>
</g>
<defs>
<clipPath id="clip0_621_87">
<rect width="48" height="48" fill="white" transform="translate(0 0.58606)"/>
</clipPath>
</defs>
</svg>
