<svg width="37" height="36" viewBox="0 0 37 36" fill="none" xmlns="http://www.w3.org/2000/svg">
<path d="M18.541 11.0656C16.7065 11.0656 14.9472 11.7963 13.6501 13.0971C12.3529 14.3978 11.6242 16.162 11.6242 18.0016C11.6242 19.8411 12.3529 21.6053 13.6501 22.9061C14.9472 24.2068 16.7065 24.9376 18.541 24.9376C20.3754 24.9376 22.1347 24.2068 23.4319 22.9061C24.729 21.6053 25.4577 19.8411 25.4577 18.0016C25.4577 16.162 24.729 14.3978 23.4319 13.0971C22.1347 11.7963 20.3754 11.0656 18.541 11.0656ZM18.541 22.5061C17.3492 22.5061 16.2063 22.0313 15.3636 21.1863C14.5209 20.3413 14.0475 19.1951 14.0475 18.0001C14.0475 16.805 14.5209 15.6589 15.3636 14.8138C16.2063 13.9688 17.3492 13.4941 18.541 13.4941C19.7327 13.4941 20.8757 13.9688 21.7184 14.8138C22.5611 15.6589 23.0345 16.805 23.0345 18.0001C23.0345 19.1951 22.5611 20.3413 21.7184 21.1863C20.8757 22.0313 19.7327 22.5061 18.541 22.5061Z" fill="black"/>
<path d="M25.7315 12.4276C26.622 12.4276 27.344 11.7036 27.344 10.8106C27.344 9.91752 26.622 9.19357 25.7315 9.19357C24.8409 9.19357 24.119 9.91752 24.119 10.8106C24.119 11.7036 24.8409 12.4276 25.7315 12.4276Z" fill="black"/>
<path d="M31.3065 9.16657C30.9602 8.26984 30.431 7.45549 29.7528 6.77566C29.0746 6.09582 28.2623 5.56548 27.3679 5.21857C26.3213 4.8246 25.2157 4.61158 24.098 4.58857C22.6575 4.52557 22.2013 4.50757 18.5485 4.50757C14.8956 4.50757 14.4274 4.50757 12.9989 4.58857C11.8821 4.6104 10.7772 4.82347 9.73196 5.21857C8.83735 5.56507 8.02485 6.09527 7.34659 6.77516C6.66833 7.45505 6.13929 8.2696 5.79341 9.16657C5.40046 10.216 5.18851 11.3248 5.16665 12.4456C5.10233 13.8886 5.08289 14.3461 5.08289 18.0106C5.08289 21.6736 5.08289 22.1401 5.16665 23.5756C5.18909 24.6976 5.4 25.8046 5.79341 26.8561C6.14026 27.7527 6.66982 28.5669 7.34824 29.2467C8.02667 29.9265 8.83904 30.4569 9.73346 30.8041C10.7767 31.2139 11.882 31.4421 13.0019 31.4791C14.4424 31.5421 14.8986 31.5616 18.5514 31.5616C22.2043 31.5616 22.6725 31.5616 24.101 31.4791C25.2186 31.4563 26.3242 31.2438 27.3709 30.8506C28.2651 30.5029 29.0771 29.972 29.7553 29.292C30.4334 28.612 30.9627 27.7977 31.3095 26.9011C31.7029 25.8511 31.9138 24.7441 31.9362 23.6221C32.0006 22.1791 32.02 21.7216 32.02 18.0571C32.02 14.3926 32.02 13.9276 31.9362 12.4921C31.9188 11.3555 31.7058 10.2304 31.3065 9.16657ZM29.4845 23.4646C29.4749 24.329 29.3176 25.1854 29.0193 25.9966C28.7947 26.5799 28.4508 27.1096 28.0098 27.5516C27.5687 27.9936 27.0403 28.3381 26.4585 28.5631C25.6585 28.8607 24.8136 29.0185 23.9604 29.0296C22.5394 29.0956 22.1385 29.1121 18.4946 29.1121C14.8477 29.1121 14.4753 29.1121 13.0273 29.0296C12.1746 29.0191 11.33 28.8613 10.5307 28.5631C9.94689 28.3395 9.41634 27.9956 8.9734 27.5535C8.53047 27.1114 8.18501 26.581 7.95939 25.9966C7.66538 25.1941 7.50811 24.3478 7.49418 23.4931C7.42986 22.0681 7.4149 21.6661 7.4149 18.0121C7.4149 14.3566 7.4149 13.9831 7.49418 12.5296C7.50385 11.6656 7.6612 10.8097 7.95939 9.99907C8.41562 8.81557 9.35052 7.88407 10.5307 7.43107C11.3304 7.13428 12.1747 6.97651 13.0273 6.96457C14.4498 6.90007 14.8492 6.88207 18.4946 6.88207C22.14 6.88207 22.5139 6.88207 23.9604 6.96457C24.8136 6.97486 25.6587 7.13268 26.4585 7.43107C27.0402 7.65648 27.5686 8.00137 28.0096 8.44361C28.4506 8.88586 28.7946 9.41568 29.0193 9.99907C29.3134 10.8015 29.4706 11.6478 29.4845 12.5026C29.5489 13.9291 29.5653 14.3296 29.5653 17.9851C29.5653 21.6391 29.5653 22.0321 29.501 23.4661H29.4845V23.4646Z" fill="black"/>
</svg>
