<svg width="48" height="49" viewBox="0 0 48 49" fill="none" xmlns="http://www.w3.org/2000/svg">
<path d="M6 6.58606H42V42.5861H6V6.58606ZM39.05 34.0001C38.788 32.3581 37.718 30.9781 34.546 29.6901C33.442 29.1721 32.216 28.8141 31.848 27.9821C31.712 27.4861 31.692 27.2181 31.78 26.9241C32.006 25.9561 33.154 25.6661 34.054 25.9341C34.64 26.1141 35.18 26.5641 35.518 27.2861C37.068 26.2721 37.068 26.2721 38.15 25.5981C37.744 24.9701 37.542 24.6961 37.272 24.4261C36.326 23.3701 35.066 22.8301 33.02 22.8761L31.964 23.0101C30.95 23.2581 29.982 23.8001 29.398 24.5181C27.688 26.4541 28.182 29.8281 30.252 31.2261C32.298 32.7561 35.294 33.0921 35.676 34.5321C36.036 36.2881 34.372 36.8501 32.726 36.6481C31.512 36.3761 30.836 35.7701 30.094 34.6441L27.35 36.2201C27.664 36.9381 28.024 37.2541 28.564 37.8841C31.174 40.5161 37.7 40.3821 38.87 36.3761C38.912 36.2421 39.23 35.3201 38.982 33.9021L39.05 34.0001ZM25.576 23.1321H22.204C22.204 26.0381 22.19 28.9281 22.19 31.8401C22.19 33.6881 22.284 35.3841 21.982 35.9061C21.488 36.9401 20.21 36.8081 19.632 36.6241C19.038 36.3321 18.736 35.9261 18.386 35.3421C18.292 35.1861 18.222 35.0501 18.196 35.0501L15.46 36.7381C15.918 37.6841 16.586 38.4961 17.448 39.0121C18.73 39.7781 20.452 40.0261 22.256 39.6221C23.432 39.2821 24.446 38.5841 24.972 37.5041C25.74 36.1101 25.576 34.3981 25.57 32.4861C25.586 29.4041 25.57 26.3201 25.57 23.2161L25.576 23.1321Z" fill="black"/>
</svg>
