<svg width="37" height="36" viewBox="0 0 37 36" fill="none" xmlns="http://www.w3.org/2000/svg">
<path d="M30.781 4.5H6.84753C6.4508 4.5 6.07033 4.65804 5.78981 4.93934C5.50928 5.22064 5.35168 5.60218 5.35168 6V30C5.35168 30.3978 5.50928 30.7794 5.78981 31.0607C6.07033 31.342 6.4508 31.5 6.84753 31.5H30.781C31.1777 31.5 31.5582 31.342 31.8387 31.0607C32.1192 30.7794 32.2768 30.3978 32.2768 30V6C32.2768 5.60218 32.1192 5.22064 31.8387 4.93934C31.5582 4.65804 31.1777 4.5 30.781 4.5ZM13.338 27.5055H9.34109V14.6205H13.338V27.5055ZM11.3395 12.861C10.7254 12.861 10.1364 12.6164 9.70219 12.1809C9.26794 11.7454 9.02398 11.1548 9.02398 10.539C9.02398 9.92317 9.26794 9.33256 9.70219 8.8971C10.1364 8.46164 10.7254 8.217 11.3395 8.217C11.9537 8.217 12.5426 8.46164 12.9769 8.8971C13.4111 9.33256 13.6551 9.92317 13.6551 10.539C13.6551 11.1548 13.4111 11.7454 12.9769 12.1809C12.5426 12.6164 11.9537 12.861 11.3395 12.861ZM28.2949 27.5055H24.3025V21.24C24.3025 19.746 24.2756 17.8245 22.2263 17.8245C20.1471 17.8245 19.8314 19.4535 19.8314 21.135V27.507H15.842V14.622H19.6714V16.383H19.7267C20.2577 15.3705 21.5621 14.3025 23.5022 14.3025C27.547 14.3025 28.2934 16.9695 28.2934 20.4405L28.2949 27.5055Z" fill="black"/>
</svg>
