<svg width="48" height="49" viewBox="0 0 48 49" fill="none" xmlns="http://www.w3.org/2000/svg">
<g clip-path="url(#clip0_621_101)">
<path d="M34.3859 19.6961C31.8579 8.53606 25.8819 4.86806 25.2399 3.46606C24.6799 2.67806 24.1799 1.55806 23.7699 0.58606C23.6979 1.57606 23.6599 1.95606 22.7239 2.95406C21.2779 4.08606 13.8479 10.3181 13.2439 22.9941C12.6799 34.8181 21.7839 41.8641 23.0199 42.7621L23.1599 42.8621C23.4173 44.7657 23.6373 46.6739 23.8199 48.5861H24.7819C25.0097 46.5223 25.3503 44.4727 25.8019 42.4461C26.6359 41.8541 27.0099 41.5201 27.5019 41.0601C29.8319 38.9047 31.6835 36.2843 32.9371 33.3683C34.1909 30.4525 34.8185 27.3059 34.7799 24.1321C34.7999 22.5041 34.5739 20.8081 34.3859 19.6961ZM23.7139 36.0861C23.7139 36.0861 23.7139 19.5041 24.2639 19.5061C24.6899 19.5061 25.2439 40.8961 25.2439 40.8961C24.4819 40.8061 23.7139 37.3761 23.7139 36.0861Z" fill="black"/>
</g>
<defs>
<clipPath id="clip0_621_101">
<rect width="48" height="48" fill="white" transform="translate(0 0.58606)"/>
</clipPath>
</defs>
</svg>
