<svg width="48" height="49" viewBox="0 0 48 49" fill="none" xmlns="http://www.w3.org/2000/svg">
<g clip-path="url(#clip0_621_99)">
<path d="M24 48.4981C23.316 48.4981 22.68 48.3201 22.086 48.0121L16.028 44.5361C15.118 44.0521 15.574 43.8761 15.848 43.7881C17.076 43.3921 17.304 43.3041 18.58 42.5981C18.716 42.5101 18.9 42.5541 19.036 42.6421L23.682 45.3281C23.862 45.4161 24.092 45.4161 24.228 45.3281L42.402 35.1601C42.582 35.0721 42.674 34.8961 42.674 34.6761V14.3841C42.674 14.1641 42.584 13.9881 42.402 13.9001L24.228 3.77806C24.046 3.69006 23.818 3.69006 23.682 3.77806L5.508 13.9001C5.326 13.9881 5.234 14.2081 5.234 14.3841V34.6761C5.234 34.8521 5.326 35.0721 5.508 35.1601L10.472 37.9341C13.16 39.2541 14.844 37.7141 14.844 36.1741V16.1461C14.844 15.8821 15.072 15.6181 15.392 15.6181H17.714C17.988 15.6181 18.26 15.8381 18.26 16.1461V36.1721C18.26 39.6501 16.302 41.6741 12.886 41.6741C11.838 41.6741 11.018 41.6741 8.696 40.5741L3.914 37.9341C3.33776 37.6173 2.85656 37.1523 2.5201 36.5873C2.18362 36.0223 2.00408 35.3777 2 34.7201V14.4281C2 13.1081 2.728 11.8761 3.914 11.2161L22.088 1.04606C22.6796 0.742635 23.335 0.584381 24 0.584381C24.665 0.584381 25.3204 0.742635 25.912 1.04606L44.088 11.2141C45.272 11.8741 46 13.1061 46 14.4261V34.7181C46 36.0381 45.272 37.2701 44.088 37.9321L25.912 48.0981C25.3086 48.3597 24.6578 48.4945 24 48.4941V48.4981ZM29.602 34.5441C21.632 34.5441 19.992 31.0241 19.992 28.0301C19.992 27.7661 20.22 27.5021 20.538 27.5021H22.906C23.18 27.5021 23.406 27.6781 23.406 27.9421C23.772 30.2741 24.82 31.4181 29.648 31.4181C33.474 31.4181 35.114 30.5821 35.114 28.6021C35.114 27.4581 34.658 26.6221 28.692 26.0501C23.726 25.5641 20.63 24.5101 20.63 20.6801C20.63 17.1141 23.726 15.0001 28.92 15.0001C34.75 15.0001 37.62 16.9381 37.984 21.1641C37.98 21.3071 37.9318 21.4455 37.846 21.5601C37.756 21.6481 37.62 21.7361 37.482 21.7361H35.114C34.999 21.7333 34.888 21.6931 34.7978 21.6217C34.7076 21.5503 34.643 21.4515 34.614 21.3401C34.066 18.9201 32.654 18.1261 28.92 18.1261C24.728 18.1261 24.228 19.5341 24.228 20.5901C24.228 21.8681 24.82 22.2641 30.468 22.9681C36.07 23.6721 38.712 24.6841 38.712 28.4681C38.666 32.3441 35.388 34.5441 29.602 34.5441Z" fill="black"/>
</g>
<defs>
<clipPath id="clip0_621_99">
<rect width="48" height="48" fill="white" transform="translate(0 0.58606)"/>
</clipPath>
</defs>
</svg>
