<svg width="48" height="49" viewBox="0 0 48 49" fill="none" xmlns="http://www.w3.org/2000/svg">
<path d="M24.0001 26.6461C25.9717 26.6461 27.5701 25.0477 27.5701 23.0761C27.5701 21.1045 25.9717 19.5061 24.0001 19.5061C22.0285 19.5061 20.4301 21.1045 20.4301 23.0761C20.4301 25.0477 22.0285 26.6461 24.0001 26.6461Z" fill="black"/>
<path d="M14.004 30.1741L13.214 29.9721C7.34598 28.4901 3.97998 25.9701 3.97998 23.0681C3.97998 20.1641 7.34798 17.6461 13.214 16.1641L14.004 15.9641L14.226 16.7461C14.8191 18.7935 15.5789 20.7889 16.498 22.7121L16.668 23.0681L16.498 23.4241C15.578 25.3501 14.816 27.3461 14.226 29.3941L14.004 30.1741ZM12.85 17.9841C8.39198 19.2401 5.65398 21.1561 5.65398 23.0681C5.65398 24.9761 8.38998 26.8941 12.85 28.1481C13.396 26.4121 14.056 24.7141 14.82 23.0681C14.0504 21.4193 13.3923 19.7208 12.85 17.9841ZM33.994 30.1741L33.774 29.3901C33.1794 27.3423 32.4188 25.3463 31.5 23.4221L31.33 23.0681L31.5 22.7101C32.42 20.7881 33.178 18.7901 33.774 16.7421L33.994 15.9621L34.784 16.1621C40.654 17.6441 44.018 20.1621 44.018 23.0681C44.018 25.9721 40.652 28.4901 34.784 29.9721L33.994 30.1741ZM33.174 23.0681C33.974 24.8001 34.64 26.5041 35.148 28.1481C39.608 26.8941 42.346 24.9761 42.346 23.0681C42.346 21.1561 39.61 19.2421 35.148 17.9841C34.6026 19.7203 33.9432 21.4187 33.174 23.0681Z" fill="black"/>
<path d="M12.838 17.9761L12.618 17.1961C10.966 11.3801 11.466 7.21406 13.992 5.76206C16.462 4.33206 20.436 6.02206 24.598 10.2921L25.166 10.8761L24.598 11.4581C23.1198 12.9954 21.7686 14.6502 20.558 16.4061L20.332 16.7301L19.94 16.7621C17.8112 16.9293 15.6995 17.2697 13.626 17.7801L12.838 17.9761ZM16.002 6.91806C15.554 6.91806 15.158 7.01606 14.824 7.20806C13.168 8.16206 12.876 11.4841 14.016 15.9681C15.798 15.5741 17.596 15.2921 19.408 15.1341C20.457 13.6462 21.6014 12.2279 22.834 10.8881C20.228 8.35406 17.768 6.91806 16.002 6.91806ZM31.996 40.8861C29.62 40.8861 26.568 39.0941 23.4 35.8421L22.834 35.2601L23.4 34.6801C24.8784 33.1403 26.2302 31.4835 27.442 29.7261L27.666 29.4061L28.054 29.3681C30.1836 29.2039 32.296 28.8647 34.37 28.3541L35.16 28.1541L35.382 28.9361C37.026 34.7481 36.528 38.9201 34.006 40.3721C33.3936 40.7191 32.6998 40.8967 31.996 40.8861ZM25.166 35.2461C27.77 37.7801 30.232 39.2181 31.996 39.2181C32.446 39.2181 32.842 39.1181 33.174 38.9281C34.832 37.9721 35.126 34.6441 33.982 30.1601C32.202 30.5561 30.402 30.8401 28.586 30.9981C27.5414 32.4883 26.3988 33.9075 25.166 35.2461Z" fill="black"/>
<path d="M35.16 17.9761L34.37 17.7781C32.2962 17.2661 30.1836 16.9256 28.054 16.7601L27.666 16.7261L27.442 16.4021C26.2318 14.6452 24.88 12.9904 23.4 11.4541L22.834 10.8721L23.4 10.2921C27.56 6.02407 31.532 4.33407 34.006 5.76207C36.53 7.21607 37.032 11.3821 35.382 17.1961L35.16 17.9761ZM28.586 15.1341C30.494 15.3041 32.302 15.5901 33.982 15.9681C35.124 11.4841 34.832 8.16207 33.174 7.20607C31.526 6.25207 28.424 7.71207 25.166 10.8881C26.398 12.2281 27.542 13.6441 28.586 15.1341ZM16.002 40.8861C15.2983 40.8961 14.6045 40.7187 13.992 40.3721C11.466 38.9201 10.966 34.7501 12.616 28.9361L12.832 28.1541L13.622 28.3541C15.55 28.8401 17.674 29.1821 19.938 29.3681L20.326 29.4061L20.552 29.7261C21.76 31.4821 23.112 33.1401 24.592 34.6801L25.16 35.2601L24.592 35.8421C21.426 39.0961 18.374 40.8861 16.002 40.8861ZM14.016 30.1621C12.876 34.6461 13.168 37.9741 14.824 38.9301C16.474 39.8701 19.566 38.4201 22.834 35.2461C21.602 33.9059 20.4576 32.4877 19.408 31.0001C17.5942 30.8397 15.793 30.5597 14.016 30.1621Z" fill="black"/>
<path d="M23.9999 31.2121C22.6259 31.2121 21.2159 31.1541 19.7999 31.0361L19.4079 31.0021L19.1819 30.6781C18.3834 29.5299 17.6322 28.3495 16.9299 27.1401C16.2329 25.9273 15.5851 24.6871 14.9879 23.4221L14.8199 23.0681L14.9879 22.7101C15.5859 21.4461 16.2319 20.2061 16.9299 18.9941C17.6239 17.8021 18.3819 16.6101 19.1819 15.4541L19.4079 15.1341L19.7999 15.0981C22.5937 14.8641 25.4021 14.8641 28.1959 15.0981L28.5839 15.1361L28.8099 15.4561C30.4095 17.7536 31.8143 20.1807 33.0099 22.7121L33.1759 23.0701L33.0099 23.4241C31.8177 25.9573 30.4127 28.3847 28.8099 30.6801L28.5839 31.0041L28.1959 31.0381C26.7839 31.1521 25.3719 31.2121 23.9999 31.2121ZM20.3319 29.4041C22.8019 29.5901 25.1979 29.5901 27.6659 29.4041C29.0437 27.3865 30.2685 25.2685 31.3299 23.0681C30.2721 20.8657 29.0473 18.7474 27.6659 16.7321C25.2249 16.5441 22.7729 16.5441 20.3319 16.7321C18.9494 18.7467 17.7244 20.8649 16.6679 23.0681C17.7317 25.2673 18.9564 27.3851 20.3319 29.4041Z" fill="black"/>
</svg>
